<svg viewBox="0 0 2134 911" xmlns="http://www.w3.org/2000/svg" fill-rule="evenodd" clip-rule="evenodd"
    stroke-linejoin="round" stroke-miterlimit="2">
  <path d="M924.329 768.484L143.55.009.003 141.294l780.779 768.474 143.547-141.284z" fill="#e0e0e0" />
  <path d="M852.931 838.777L72.152 70.303.012 141.306 780.79 909.781l72.141-71.004z" fill="#f1f1f1" />
  <path
      d="M895.353 29.263c-39.641-39.017-103.911-39.017-143.554 0L81.415 689.086 0 910.507l224.966-80.13 670.388-659.824a98.8 98.8 0 000-141.292l-.001.002z"
      fill="#f28e00" fill-rule="nonzero" />
  <path d="M895.353 29.263c-39.641-39.017-103.911-39.017-143.554 0L81.415 689.086 0 910.507 895.353 29.263z"
      fill="#fbba00" fill-rule="nonzero" />
  <path
      d="M895.353 29.263c-39.641-39.017-103.911-39.017-143.554 0l-79.075 77.83 143.554 141.292 79.077-77.83a98.801 98.801 0 00-.002-141.292z"
      fill="#ff405f" fill-rule="nonzero" />
  <path d="M81.415 689.086L0 910.506l224.966-80.13-143.551-141.29z" fill="#fbba00" fill-rule="nonzero" />
  <path
      d="M521.817 654.869l40.049 39.418 93.686-92.21-40.049-39.417-93.686 92.209zM601.471 733.277l40.049 39.418 93.686-92.21-40.049-39.417-93.686 92.209zM681.108 811.676l40.049 39.417 93.686-92.209-40.049-39.418-93.686 92.21zM59.621 199.975l40.048 39.417 93.686-92.209-40.049-39.417-93.685 92.209zM139.272 278.377l40.049 39.418 93.685-92.21-40.048-39.417-93.686 92.209zM218.938 356.787l40.049 39.417 93.686-92.21-40.049-39.417-93.686 92.21z"
      fill="#666" />
  <path d="M81.415 689.086L0 910.506 153.19 759.73l-71.775-70.644z" fill="#fbdb80" fill-rule="nonzero" />
  <path d="M895.353 29.263c-39.641-39.017-103.911-39.017-143.554 0l-79.075 77.83 71.777 70.646L895.353 29.263z"
      fill="#fb788a" fill-rule="nonzero" />
  <path d="M0 910.505l124.59-44.376-79.501-78.25L0 910.505z" fill="#666" fill-rule="nonzero" />
  <g>
    <path
        d="M1031.21 443.476h66.606c16.651 0 30.788-1.708 42.409-5.122 11.621-3.414 20.901-7.939 27.839-13.572 6.938-5.634 11.969-12.292 15.091-19.975 3.122-7.682 4.683-15.962 4.683-24.839 0-8.536-1.561-16.645-4.683-24.328-3.122-7.682-8.153-14.426-15.091-20.23-6.938-5.805-16.218-10.329-27.839-13.572-11.621-3.244-25.758-4.866-42.409-4.866h-66.606v126.504zm0 202.303h-37.466V283.17h113.438c37.466 0 67.04 8.023 88.722 24.071 21.681 16.048 32.522 40.29 32.522 72.727 0 25.266-8.065 46.521-24.197 63.764-16.131 17.242-39.46 27.229-69.988 29.961l106.153 172.086h-45.791l-100.95-168.501h-62.443v168.501zM1465.71 645.779a244.1 244.1 0 01-1.301-19.206 701.598 701.598 0 01-.26-19.206h-1.04c-3.816 6.487-8.673 12.462-14.571 17.925-5.897 5.463-12.488 10.158-19.773 14.085-7.285 3.926-15.004 6.999-23.156 9.218-8.153 2.22-16.218 3.33-24.197 3.33-31.222 0-54.291-8.11-69.208-24.328-14.917-16.218-22.375-39.351-22.375-69.398V406.088h34.343v132.649c0 13.316 1.041 25.096 3.123 35.339 2.081 10.243 5.637 18.865 10.667 25.864 5.03 7 11.795 12.292 20.294 15.877 8.499 3.585 19.167 5.378 32.002 5.378 1.735 0 6.591-.683 14.57-2.049 7.979-1.365 16.392-5.121 25.238-11.267 8.846-6.146 16.738-15.365 23.676-27.657 6.938-12.292 10.407-29.364 10.407-51.216V406.088h34.344v186.938c0 6.488.26 14.682.781 24.584.52 9.902 1.127 19.291 1.821 28.169h-35.385z"
        fill-rule="nonzero" />
    <path d="M1586.95 258.584h34.344v387.193h-34.344z" />
    <path
        d="M1893.45 507.495c0-22.876-6.938-41.399-20.814-55.569-13.876-14.17-33.303-21.254-58.28-21.254-11.101 0-21.856 2.134-32.263 6.402-10.407 4.268-19.513 9.987-27.319 17.157-7.805 7.17-14.049 15.365-18.733 24.584-4.683 9.218-7.024 18.779-7.024 28.68h164.433zm-165.474 27.657c1.041 11.95 3.989 23.218 8.846 33.803 4.857 10.584 11.274 19.718 19.253 27.4 7.979 7.683 17.172 13.743 27.579 18.182 10.408 4.439 21.682 6.658 33.824 6.658 18.386 0 34.257-4.183 47.613-12.548 13.356-8.365 23.503-18.011 30.441-28.937l26.538 21.511c-14.57 18.096-30.614 31.071-48.133 38.924-17.519 7.853-36.339 11.78-56.459 11.78-18.039 0-34.778-3.159-50.215-9.475-15.437-6.317-28.707-15.109-39.808-26.377-11.101-11.267-19.86-24.583-26.278-39.948-6.418-15.365-9.626-32.095-9.626-50.192 0-18.096 3.122-34.827 9.366-50.191 6.244-15.365 14.917-28.681 26.018-39.949 11.101-11.267 24.11-20.059 39.027-26.376 14.917-6.317 31.048-9.475 48.394-9.475 18.386 0 34.864 3.244 49.434 9.731s26.798 15.109 36.685 25.864c9.887 10.755 17.432 23.389 22.636 37.9 5.203 14.511 7.805 29.961 7.805 46.35v15.365h-202.94zM1997 480.859c0-10.585-.26-21.34-.781-32.266-.52-10.926-.954-25.096-1.3-42.509h33.823v44.557h1.041c2.428-6.487 5.897-12.718 10.407-18.693 4.51-5.976 9.973-11.353 16.391-16.133 6.418-4.781 13.876-8.622 22.376-11.524 8.499-2.902 18.126-4.353 28.88-4.353 9.713 0 18.212 1.024 25.497 3.073l-6.764 33.29c-4.51-1.707-11.101-2.561-19.774-2.561-13.182 0-24.457 2.476-33.823 7.427-9.367 4.95-17.172 11.267-23.417 18.949-6.244 7.683-10.84 15.963-13.789 24.84-2.949 8.878-4.423 17.414-4.423 25.608v135.21H1997V480.859z"
        fill-rule="nonzero" />
  </g>
</svg>
