<svg xmlns="http://www.w3.org/2000/svg" viewBox="0 0 512.002 512.002">
  <path fill="#e0e0e0" d="M79.45.005l432.133 432.133-79.448 79.447L.002 79.453z" />
  <path fill="#f1f1f1" d="M39.934 39.532l432.133 432.133-39.927 39.927L.007 79.46z" />
  <path
      d="M495.547 16.456c-21.94-21.94-57.511-21.94-79.452 0L45.062 387.491.002 512.001l124.51-45.059L495.547 95.908c21.94-21.941 21.94-57.512 0-79.452z"
      fill="#f28e00" />
  <path d="M495.547 16.456c-21.94-21.94-57.511-21.94-79.452 0L45.062 387.491.002 512.001 495.547 16.456z"
      fill="#fbba00" />
  <path
      d="M495.547 16.456c-21.94-21.94-57.511-21.94-79.452 0L372.33 60.222l79.452 79.452 43.766-43.766c21.939-21.941 21.939-57.512-.001-79.452z"
      fill="#ff405f" />
  <path fill="#fbba00" d="M45.062 387.491L.002 512.001l124.51-45.059z" />
  <g fill="#666">
    <path
        d="M310.974 390.416L288.81 368.25 340.66 316.4l22.165 22.165zM355.058 434.505l-22.165-22.165 51.852-51.852 22.165 22.166zM399.135 478.593l-22.166-22.166 51.852-51.852 22.165 22.166zM55.165 134.617L33 112.452 84.85 60.6l22.166 22.166zM99.25 178.705l-22.166-22.166 51.852-51.851 22.165 22.165zM143.342 222.796l-22.166-22.165 51.852-51.852 22.165 22.166z" />
  </g>
  <path fill="#fbdb80" d="M45.062 387.491L.002 512.001l84.785-84.785z" />
  <path d="M495.547 16.456c-21.94-21.94-57.511-21.94-79.452 0L372.33 60.222l39.726 39.726 83.491-83.492z"
      fill="#fb788a" />
  <path fill="#666" d="M.002 512.001l68.956-24.954-44.001-44.002z" />
</svg>
